<svg
  xmlns="http://www.w3.org/2000/svg"
  viewBox="0 0 13.31 12"
  fill="#00ffc3"
  width="13"
  height="12"
>
  <path d="M.43,4.6.9,4.5,3.23,4,4.5,3.72a.15.15,0,0,0,.06-.05C5,2.86,5.51,2,6,1.22L6.63.12l0,0,0,.05L8.11,2.57l.64,1.11.06,0,3.1.67.92.2h.05l-.26.3L11.44,6.21,10.12,7.69a.1.1,0,0,0,0,.1c0,.43.08.86.13,1.29s.09.92.14,1.38l.12,1.28a1,1,0,0,1,0,.18l-.36-.16L6.83,10.3a.38.38,0,0,0-.36,0l-1.87.83-1.75.77,0,0,0-.34c0-.37.08-.74.11-1.1l.12-1.17c0-.17,0-.33.05-.5,0-.34.07-.69.11-1a.07.07,0,0,0,0-.06l-1-1.12c-.37-.41-.73-.82-1.1-1.22C.9,5.12.68,4.88.46,4.64Zm4.09,5,0,0,2.05-.9a.11.11,0,0,1,.08,0l1.86.82.24.11v0L8.7,8.61c0-.43-.09-.86-.14-1.29a.11.11,0,0,1,0-.09l1.49-1.67,0,0-.08,0L7.88,5a.07.07,0,0,1-.06,0c-.06-.1-.12-.2-.17-.3l-.82-1.4L6.66,3a.21.21,0,0,0,0,.06L5.5,5a.08.08,0,0,1-.07,0L5,5.14l-1.5.33-.26.06,0,0L4.71,7.22a.14.14,0,0,1,0,.14c0,.18,0,.37,0,.56-.05.4-.09.8-.13,1.2C4.55,9.28,4.53,9.43,4.52,9.6Z"/>
</svg>

