<svg
  xmlns="http://www.w3.org/2000/svg"
  viewBox="0 0 230 133"
  width="230"
  height="133"
>
  <polygon points="191 109.5 73 109.5 112 35.5 230 35.5 191 109.5" fill="#fff"/>
  <path d="M146,63.5h9l3-6c1-2,2-7-3-7H126s-7-1-12,7-17,30-17,30-3,7,2,8,29,0,29,0,8,1,12-5,12-22,12-22H125.5l-5,8.5h18s-1,8-7,10h-21s-4,1-2-5,12-21,12-21a4.33,4.33,0,0,1,4-2h20S149.5,58,146,63.5Z"/>
  <path d="M203.5,50h-29c-9,0-12,7-12,7s-15,25-18,32,4,7,4,7h28a15.36,15.36,0,0,0,13-7s14-23,17-31S203.5,50,203.5,50Zm-10,14.29c-1.74,4.65-10.28,18.84-10.28,18.84s-1.91,3.22-7.13,3.22H159.85s-4.06,0-2.32-4.06S168,63.71,168,63.71a7.49,7.49,0,0,1,7-4.06h16.83S195.25,59.65,193.51,64.29Z"/>
  <polygon points="104 0.5 66 79.5 28 0.5 0 0.5 66 132.5 132 0.5 104 0.5" fill="#ae1720"/>
</svg>
